<svg width="725" height="1024" viewBox="0 0 725 1024" fill="none" xmlns="http://www.w3.org/2000/svg">
<g clip-path="url(#clip0_2_3982)">
<rect width="725" height="1024" fill="#E9E9EE"/>
<g clip-path="url(#clip1_2_3982)">
<path opacity="0.2" d="M609.873 496.621L566.769 619.322L480.833 680.529H480.696L437.592 803.23L351.656 864.436H351.519L308.415 987.137L250.579 1028.42H252.352L308.96 988.003H309.097L352.201 865.302L438.137 804.096H438.274L481.378 681.395L567.314 620.188H567.451L610.555 497.487L696.491 436.281H696.628L725 355.442V352.844L695.809 435.415L609.873 496.621ZM599.097 481.319L555.992 604.021L470.056 665.227H469.92L426.816 787.928L340.88 849.134H340.743L297.502 972.124L218.114 1028.71H219.887L297.912 972.99H298.048L341.152 850.289L427.088 789.083H427.225L470.329 666.382L556.265 605.176H556.402L599.506 482.474L685.442 421.268H685.579L724.727 309.826V307.228L685.033 420.402L599.097 481.319ZM642.065 174.422L598.961 297.123L513.024 358.33H512.888L469.784 481.031L383.848 542.237H383.711L340.607 664.938L254.671 726.144H254.534L211.43 848.846L125.494 910.052H125.357L84.0263 1027.85H84.8448L125.903 910.629L211.839 849.423H211.976L255.08 726.722L341.016 665.516H341.152L384.257 542.814L470.193 481.608H470.329L513.434 358.907L599.37 297.701H599.506L642.611 175.288L724.727 116.68V115.525L642.065 174.422ZM652.841 189.724L609.737 312.425L523.801 373.631H523.664L480.56 496.332L394.624 557.539H394.487L351.383 680.24L265.447 741.446H265.31L222.206 864.147L136.27 925.354H136.134L100.122 1027.85H100.941L136.679 926.22L222.615 865.013H222.752L265.856 742.312L351.792 681.106H351.928L395.033 558.405L480.969 497.198H481.105L524.21 374.497L610.146 313.291H610.282L653.387 190.59L724.727 139.777V138.622L652.841 189.724ZM706.585 634.624L663.481 757.325L577.545 818.531H577.408L534.304 941.233L448.368 1002.44H448.231L439.092 1028.42H439.911L448.641 1003.3L534.577 942.099H534.713L577.818 819.397L663.754 758.191H663.89L706.994 635.49L724.591 623.075V621.921L706.585 634.624ZM717.361 650.214L674.257 772.915L588.321 834.122H588.184L545.08 956.823L459.144 1018.03H459.008L455.325 1028.42H456.143L459.553 1018.61L545.489 957.4H545.626L588.73 834.699L674.666 773.493H674.802L717.907 650.792L724.727 645.883V644.729L717.361 650.214ZM631.425 527.224L588.321 649.925L502.385 711.132H502.248L459.144 833.833L373.208 895.039H373.072L329.967 1017.74L315.235 1028.13H317.008L330.513 1018.61H330.649L373.754 895.905L459.69 834.699H459.826L502.93 711.998L588.866 650.792H589.003L632.107 528.09L718.043 466.884H718.18L725 447.541V444.942L717.634 466.018L631.425 527.224ZM620.649 511.923L577.545 634.624L491.609 695.83H491.472L448.231 818.82L362.295 880.026H362.159L319.055 1002.73L282.77 1028.71H284.544L319.6 1003.88H319.737L362.841 881.181L448.777 819.975H448.913L492.018 697.274L577.954 636.067H578.09L621.195 513.366L707.131 452.16H707.267L724.864 402.213V399.615L706.721 451.294L620.649 511.923ZM695.809 251.219L652.705 373.92L566.769 435.126H566.632L523.528 557.827L437.592 619.034H437.455L394.351 741.735L308.415 802.941H308.278L265.174 925.642L179.238 986.849H179.102L164.643 1028.13H165.461L179.647 987.715L265.583 926.508H265.72L308.824 803.807L394.76 742.601H394.897L438.001 619.9L523.937 558.693H524.073L567.178 435.992L653.114 374.786H653.25L696.355 252.085L724.727 231.875V230.72L695.809 251.219ZM717.361 281.822L674.257 404.523L588.321 465.729H588.184L545.08 588.43L459.144 649.637H459.008L415.903 772.338L329.967 833.544H329.831L286.726 956.245L200.79 1017.45H200.654L196.971 1027.85H197.789L201.199 1018.03L287.135 956.823H287.272L330.376 834.122L416.312 772.915H416.449L459.553 650.214L545.489 589.008H545.626L588.73 466.307L674.666 405.1H674.802L717.907 282.399L724.727 277.491V276.336L717.361 281.822ZM706.585 266.52L663.481 389.221L577.545 450.428H577.408L534.44 573.418L448.504 634.624H448.368L405.263 757.614L319.327 818.82H319.191L276.087 941.521L190.151 1002.73H190.014L180.875 1028.71H181.693L190.423 1003.59L276.359 942.387H276.496L319.6 819.686L405.536 758.48H405.673L448.777 635.779L534.713 574.572H534.849L577.954 451.871L663.89 390.665H664.026L707.131 267.386L724.727 254.972V253.817L706.585 266.52ZM663.481 205.025L620.513 328.015L534.577 389.221H534.44L491.336 511.923L405.263 573.418H405.127L362.023 696.119L276.087 757.325H275.95L232.846 880.026L146.91 941.233H146.773L116.218 1028.42H117.037L147.319 942.099L233.255 880.892H233.391L276.496 758.191L362.432 696.985H362.568L405.673 574.284L491.609 513.077H491.745L534.849 390.376L620.786 329.17H620.922L664.026 206.469L724.591 163.162V162.008L663.481 205.025ZM631.425 159.12L588.184 281.822L502.248 343.028H502.112L459.008 465.729L373.072 526.935H372.935L329.831 649.637L243.895 710.843H243.758L200.654 834.122L114.718 895.328H114.581L71.477 1018.03L56.7451 1028.42H58.5183L72.0226 1018.9H72.159L115.263 896.194L201.199 834.988H201.336L244.44 712.286L330.376 651.08H330.513L373.617 528.379L459.553 467.173H459.69L502.794 344.471L588.73 283.265H588.866L631.971 160.564L717.907 99.3577H718.043L724.864 80.0143V76.8385L717.498 97.9142L631.425 159.12ZM674.257 220.615L631.152 343.317L545.216 404.523H545.08L502.112 527.224L416.176 588.43H416.04L372.935 711.132L286.999 772.338H286.863L243.758 895.039L157.822 956.245H157.686L132.451 1028.71H133.269L158.231 957.689L244.167 896.483H244.304L287.408 773.781L373.344 712.575H373.481L416.585 589.874L502.521 528.668H502.658L545.762 405.966L631.698 344.76H631.834L674.939 221.193L724.864 185.682V184.527L674.257 220.615ZM695.809 619.322L652.705 742.023L566.769 803.23H566.632L523.528 925.931L437.592 987.137H437.455L422.996 1028.71H423.815L438.001 988.292L523.937 927.086H524.073L567.178 804.385L653.114 743.178H653.25L696.355 620.477L724.727 600.268V599.113L695.809 619.322ZM706.585 82.3239L620.649 143.53H620.513L577.408 266.231L491.472 327.438H491.336L448.231 450.139L362.295 511.345H362.159L319.055 634.046L233.119 695.253H232.982L189.878 818.82L103.942 880.026H103.805L60.7008 1002.73L24.4167 1028.71H26.19L61.2465 1003.88H61.3829L104.487 881.181L190.423 819.975H190.56L233.664 697.274L319.6 636.067H319.737L362.841 513.366L448.777 452.16H448.913L492.018 329.459L577.954 268.252H578.09L621.195 145.551L707.131 84.3449H707.267L724.864 34.3983V30.6451L706.585 82.3239ZM685.033 235.917L641.929 358.618L555.992 419.824H555.856L512.752 542.526L426.816 603.732H426.679L383.575 726.433L297.639 787.64H297.502L254.398 910.341L168.462 971.547H168.326L148.547 1028.13H149.365L168.871 972.413L254.807 911.207H254.944L298.048 788.506L383.984 727.299H384.12L427.225 604.598L513.161 543.392H513.297L556.402 420.691L642.338 359.484H642.474L685.579 236.783L724.727 208.778V207.624L685.033 235.917ZM663.481 941.521L632.926 1028.71H633.744L664.026 942.387L724.591 899.081V897.926L663.481 941.521ZM674.257 956.823L649.022 1028.71H649.84L674.802 957.689L724.727 922.178V921.023L674.257 956.823ZM642.065 910.918L600.734 1028.71H601.552L642.611 911.496L724.727 852.888V851.733L642.065 910.918ZM685.033 972.124L665.254 1028.71H666.072L685.579 972.99L724.727 944.986V943.831L685.033 972.124ZM631.425 895.328L588.321 1018.03L573.589 1028.42H575.362L588.866 1018.9H589.003L632.107 896.194L718.043 834.988H718.18L725 815.644V813.046L717.634 834.122L631.425 895.328ZM717.361 1018.32L713.678 1028.71H714.497L717.907 1018.9L724.727 1013.99V1012.83L717.361 1018.32ZM706.585 1003.02L697.446 1029H698.264L706.994 1003.88L724.591 991.468V990.313L706.585 1003.02ZM685.033 604.021L641.929 726.722L555.992 787.928H555.856L512.752 910.629L426.816 971.836H426.679L406.9 1028.42H407.719L427.225 972.702L513.161 911.496H513.297L556.402 788.794L642.338 727.588H642.474L685.579 604.887L724.727 576.882V575.727L685.033 604.021ZM695.809 987.715L681.35 1029H682.168L696.355 988.581L724.727 968.371V967.216L695.809 987.715ZM620.649 880.026L577.545 1002.73L541.261 1028.71H543.034L578.09 1003.88H578.227L621.331 881.181L707.267 819.975H707.404L725 770.028V767.43L706.585 818.82L620.649 880.026ZM652.841 558.116L609.737 680.817L523.801 742.023H523.664L480.56 864.725L394.624 925.931H394.487L358.476 1028.42H359.294L395.033 926.797L480.969 865.591H481.105L524.21 742.89L610.146 681.683H610.282L653.387 558.982L724.727 508.169V507.015L652.841 558.116ZM674.257 588.719L631.152 711.42L545.216 772.627H545.08L502.112 895.617L416.176 956.823H416.04L390.804 1028.71H391.623L416.585 957.689L502.521 896.483H502.658L545.762 773.781L631.698 712.575H631.834L674.939 589.874L724.864 554.363V553.208L674.257 588.719ZM663.481 573.418L620.376 696.119L534.44 757.325H534.304L491.199 880.026L405.263 941.233H405.127L374.572 1028.42H375.39L405.673 942.099L491.609 880.892H491.745L534.849 758.191L620.786 696.985H620.922L664.026 574.284L724.591 530.977V529.823L663.481 573.418ZM642.065 542.814L598.961 665.516L513.024 726.722H512.888L469.784 849.423L383.848 910.629H383.711L342.38 1028.42H343.199L384.257 911.207L470.193 850.001H470.329L513.434 727.299L599.37 666.093H599.506L642.611 543.392L724.727 484.784V483.629L642.065 542.814ZM609.873 864.725L566.769 987.426L508.932 1028.71H510.706L567.314 988.292H567.451L610.555 865.591L696.491 804.385H696.628L725 723.546V720.948L695.809 803.518L609.873 864.725ZM599.097 849.423L555.992 972.124L476.604 1028.71H478.377L556.402 972.99H556.538L599.643 850.289L685.579 789.083H685.715L724.864 677.641V675.043L685.169 788.217L599.097 849.423ZM652.841 926.22L616.83 1028.71H617.648L653.387 927.086L724.727 876.273V875.118L652.841 926.22ZM50.6068 435.992L136.543 374.786H136.679L179.784 252.085L265.72 190.878H265.856L308.96 68.1772L394.897 6.97093H395.033L398.716 -3.42258H397.897L394.487 6.39352L308.551 67.5998H308.415L265.31 190.301L179.374 251.507H179.238L136.134 374.208L50.1976 435.415H50.0611L6.95673 558.116L0.136406 563.024V564.179L7.50235 558.982L50.6068 435.992ZM29.0546 589.585L72.159 466.884L158.095 405.678H158.231L201.336 282.977L287.272 221.77H287.408L330.513 99.069L416.449 37.8628H416.585L431.044 -4H430.226L416.04 36.4192L330.103 97.6255H329.967L286.863 220.327L200.927 281.533H200.79L157.686 404.234L71.7498 465.44H71.6134L28.5089 588.142L0.136406 608.351V609.506L29.0546 589.585ZM104.214 696.985L147.319 574.284L233.255 513.077H233.391L276.496 390.376L362.432 329.17H362.568L405.673 206.469L491.609 145.262H491.745L534.986 21.9838L571.27 -4H569.497L534.44 20.829H534.304L491.199 143.53L405.263 204.736H405.127L362.159 328.015L276.223 389.221H276.087L232.982 511.923L147.046 573.129H146.91L103.805 696.119L17.8692 757.325H17.7328L0.136406 807.56V810.159L18.2785 758.191L104.214 696.985ZM93.5748 681.683L136.679 558.982L222.615 497.776H222.752L265.856 375.075L351.792 313.868H351.928L395.033 191.167L480.969 129.961H481.105L524.21 7.25964L538.942 -4H537.168L523.664 5.52739H523.528L480.423 128.229L394.487 189.435H394.351L351.246 312.136L265.31 373.342H265.174L222.07 496.044L136.134 557.25H135.997L92.8928 679.951L6.95673 741.157H6.82032L0 760.501V763.099L7.36595 742.023L93.5748 681.683ZM22.2342 -4H20.5974L7.09313 5.52739L6.95673 5.8161L0.136406 25.1596V27.758L7.50235 6.68223L22.2342 -4ZM61.3829 635.49L104.351 512.789L190.287 451.582H190.423L233.528 328.881L319.464 267.675H319.6L362.705 144.974L448.641 83.7675H448.777L479.468 -4H478.65L448.368 82.3239L362.432 143.53H362.295L319.191 266.231L233.255 327.438H233.119L190.014 450.139L104.078 511.345H103.942L60.8372 634.046L0.136406 677.93V679.085L61.3829 635.49ZM50.6068 620.188L93.7112 497.487L179.647 436.281H179.784L222.888 313.58L308.824 252.373H308.96L352.065 129.672L438.001 68.4659H438.137L463.236 -4H462.418L437.455 67.0224L351.519 128.229H351.383L308.278 250.93L222.342 312.136H222.206L179.102 434.837L93.1656 496.044H93.0292L49.9247 618.745L0.136406 654.833V655.988L50.6068 620.188ZM39.8307 604.887L82.9351 482.186L168.871 420.979H169.008L212.112 298.278L298.048 237.072H298.184L341.152 113.793L427.088 52.5869H427.225L447.14 -4H446.322L426.816 51.7208L340.88 112.927H340.743L297.502 235.917L211.566 297.123H211.43L168.326 419.824L82.3895 481.031H82.2531L39.1486 603.732L0.136406 632.025V633.18L39.8307 604.887ZM29.0546 957.689L72.159 834.988L158.095 773.781H158.231L201.336 651.08L287.272 589.874H287.408L330.513 467.173L416.449 405.966H416.585L459.69 283.265L545.626 222.059H545.762L588.866 99.3577L674.802 38.1515H674.939L689.398 -4H688.58L674.393 36.4192L588.457 97.6255H588.321L545.216 220.327L459.28 281.533H459.144L416.04 404.234L330.103 465.44H329.967L286.863 588.142L200.927 649.348H200.79L157.686 772.049L71.7498 833.255H71.6134L28.5089 955.957L0.136406 976.166V977.321L29.0546 957.689ZM18.2785 942.387L61.3829 819.686L147.319 758.48H147.455L190.56 635.779L276.496 574.572H276.632L319.737 451.871L405.673 390.665H405.809L448.777 267.386L534.713 206.18H534.849L577.954 83.4788L663.89 22.2725H664.026L673.166 -3.71129H672.347L663.617 21.4064L577.681 82.6126H577.545L534.44 205.314L448.504 266.52H448.368L405.263 389.221L319.327 450.428H319.191L276.087 573.418L190.151 634.624H190.014L146.91 757.325L60.9737 818.531H60.8372L17.7328 941.233L0.136406 954.224V955.379L18.2785 942.387ZM50.6068 804.385L136.543 743.178H136.679L179.784 620.477L265.72 559.271H265.856L308.96 436.57L394.897 375.363H395.033L438.137 252.662L524.073 191.456H524.21L567.314 68.7546L653.25 7.54835H653.387L657.07 -2.84516H656.251L652.841 6.97093L566.905 68.1772H566.769L523.664 190.878L437.728 252.085H437.592L394.487 374.786L308.551 435.992H308.415L265.31 558.693L179.374 619.9H179.238L136.134 742.601L50.1976 803.807H50.0611L6.95673 926.22L0.136406 931.128V932.283L7.50235 927.086L50.6068 804.385ZM114.991 712.286L158.095 589.585L244.031 528.379H244.167L287.272 405.678L373.208 344.471H373.344L416.585 221.193L502.521 159.987H502.658L545.762 37.2854L603.598 -4H601.825L545.216 36.4192H545.08L502.112 159.12L416.176 220.327H416.04L372.935 343.028L286.999 404.234H286.863L243.758 527.224L157.822 588.43H157.686L114.581 711.132L28.6453 772.338H28.5089L0.136406 853.465V856.063L29.0546 773.781L114.991 712.286ZM50.6068 988.292L93.7112 865.591L179.647 804.385H179.784L222.888 681.683L308.824 620.477H308.96L352.065 497.776L438.001 436.57H438.137L481.242 313.868L567.178 252.662H567.314L610.419 129.961L696.355 68.7546H696.491L721.59 -4H720.771L695.809 67.0224L609.873 128.229H609.737L566.632 250.93L480.696 312.136H480.56L437.455 434.837L351.519 496.044H351.383L308.278 618.745L222.342 679.951H222.206L179.102 802.652L93.1656 863.859H93.0292L49.9247 986.56L0.136406 1023.23V1024.38L50.6068 988.292ZM125.767 727.588L168.871 604.887L254.807 543.681H254.944L298.048 420.979L383.984 359.773H384.12L427.225 237.072L513.161 175.866H513.297L556.402 53.1643L635.79 -4H634.017L555.992 51.7208H555.856L512.752 174.422L426.816 235.628H426.679L383.575 358.33L297.639 419.536H297.502L254.398 542.237L168.462 603.443H168.326L125.221 726.144L39.285 787.351H39.1486L0.136406 899.659V902.257L39.8307 789.083L125.767 727.588ZM72.159 650.792L115.263 528.09L201.199 466.884H201.336L244.44 344.183L330.376 282.977H330.513L373.617 160.275L459.553 99.069H459.69L495.564 -4H494.746L459.008 97.6255L373.072 158.832H372.935L329.831 281.822L243.895 343.028H243.758L200.654 466.018L114.718 527.224H114.581L71.477 649.925L0.136406 701.027V702.182L72.159 650.792ZM39.8307 972.99L82.9351 850.289L168.871 789.083H169.008L212.112 666.382L298.048 605.176H298.184L341.289 482.474L427.225 421.268H427.361L470.466 298.567L556.402 237.361H556.538L599.643 114.659L685.579 53.453H685.715L705.494 -4H704.675L685.169 51.7208L599.233 112.927H599.097L555.992 235.628L470.056 296.835H469.92L426.816 419.536L340.88 480.742H340.743L297.502 604.021L211.566 665.227H211.43L168.326 787.928L82.3895 849.134H82.2531L39.1486 971.836L0.136406 1000.13V1001.28L39.8307 972.99ZM18.2785 574.284L61.3829 451.582L147.319 390.376H147.455L190.56 267.386L276.496 206.18H276.632L319.737 83.4788L405.673 22.2725H405.809L414.948 -3.71129H414.13L405.263 21.1177L319.327 82.3239H319.191L276.087 205.025L190.151 266.231H190.014L146.91 388.933L60.9737 450.139H60.8372L17.7328 573.418L0.136406 585.832V586.987L18.2785 574.284ZM39.8307 236.783L82.9351 114.082L168.871 52.8756H169.008L188.786 -4H187.968L168.462 51.7208L82.5259 112.927H82.3895L39.285 235.917L0.136406 263.633V264.788L39.8307 236.783ZM61.3829 267.386L104.487 144.685L190.423 83.4788H190.56L221.115 -4H220.296L190.014 82.3239L104.078 143.53H103.942L60.7008 266.52L0.136406 309.826V310.981L61.3829 267.386ZM72.159 282.688L115.263 159.987L201.199 98.7803H201.336L237.211 -4H236.392L200.654 97.6255L114.718 159.12H114.581L71.477 281.822L0.136406 332.634V333.789L72.159 282.688ZM50.6068 252.085L93.7112 129.383L179.647 68.1772H179.784L205.019 -4H204.2L179.238 67.0224L93.302 128.229H93.1656L50.0611 251.219L0.136406 286.73V287.885L50.6068 252.085ZM82.7987 297.989L125.903 175.288L211.839 114.082H211.976L253.443 -4H252.488L211.43 113.216L125.494 174.422H125.357L82.2531 297.123L0.136406 355.731V356.886L82.7987 297.989ZM54.5626 -4H52.7893L17.8692 20.829H17.7328L0.136406 71.0643V73.6627L18.2785 21.9838L54.5626 -4ZM119.219 -4H117.446L39.285 51.7208H39.1486L0.136406 163.162V165.761L39.8307 52.5869L119.219 -4ZM86.8909 -4H85.1176L28.6453 36.4192H28.5089L0.136406 117.258V119.856L29.0546 37.5741L86.8909 -4ZM93.5748 313.58L136.679 190.878L222.615 129.672H222.752L265.856 6.97093L280.588 -4H278.815L265.31 5.52739H265.174L222.07 128.229L136.134 189.435H135.997L92.8928 312.136L6.95673 373.342H6.82032L0 392.686V395.284L7.36595 374.208L93.5748 313.58ZM29.0546 221.193L72.159 98.4916L158.095 37.2854H158.231L172.69 -4H171.872L157.686 36.4192L71.7498 97.6255H71.6134L28.5089 220.615L0.136406 240.825V241.98L29.0546 221.193ZM125.767 359.484L168.871 236.783L254.807 175.577H254.944L298.048 52.8756L377.437 -4H375.663L297.639 51.7208H297.502L254.398 174.422L168.462 235.628H168.326L125.221 358.33L39.285 419.536H39.1486L0.136406 531.266V533.864L39.8307 420.691L125.767 359.484ZM104.214 328.881L147.455 205.891L233.391 144.685H233.528L276.632 21.9838L312.916 -4H311.143L276.087 20.829H275.95L232.846 143.53L146.91 204.736H146.773L103.805 328.015L17.8692 389.221H17.7328L0.136406 439.457V442.055L18.2785 390.376L104.214 328.881ZM114.991 344.183L158.231 221.193L244.167 159.987H244.304L287.408 37.2854L345.245 -4H343.471L286.863 36.4192H286.726L243.622 159.12L157.686 220.327H157.549L114.445 343.028L28.5089 404.234H28.3725L0.136406 485.361V487.96L29.0546 405.678L114.991 344.183ZM18.2785 205.891L61.3829 83.1901L147.319 21.9838H147.455L156.595 -4H155.64L146.91 21.1177L60.9737 82.3239H60.8372L17.7328 205.025L0.136406 217.728V218.883L18.2785 205.891ZM50.6068 67.8885L136.543 6.68223H136.679L140.362 -3.71129H139.544L136.134 6.10481L50.1976 67.3111H50.0611L6.95673 189.724L0.136406 194.632V195.786L7.50235 190.59L50.6068 67.8885ZM82.7987 666.382L125.903 543.681L211.839 482.474H211.976L255.08 359.773L341.016 298.567H341.152L384.257 175.866L470.193 114.659H470.329L511.797 -4H510.978L469.92 113.216L383.984 174.422H383.848L340.743 297.123L254.807 358.33H254.671L211.566 481.031L125.63 542.237H125.494L82.3895 664.938L0.136406 723.835V724.99L82.7987 666.382Z" fill="#303192"/>
</g>
</g>
<defs>
<clipPath id="clip0_2_3982">
<rect width="725" height="1024" fill="white"/>
</clipPath>
<clipPath id="clip1_2_3982">
<rect width="725" height="1033" fill="white" transform="translate(0 -4)"/>
</clipPath>
</defs>
</svg>
