<svg width="24" height="24" viewBox="0 0 24 24" fill="none" xmlns="http://www.w3.org/2000/svg">
<path d="M1.25301 7.41189C1.27973 7.23283 1.30691 7.0608 1.3341 6.89627C1.73535 4.62611 3.76879 2.56174 6.03145 2.1033V1.18361C6.03145 0.530176 6.56113 0.000488281 7.21457 0.000488281C7.86801 0.000488281 8.3977 0.530176 8.3977 1.18361V1.78924C9.1341 1.72033 9.95863 1.66736 10.8839 1.64158V1.18361C10.8839 0.530176 11.4136 0.000488281 12.0671 0.000488281C12.7205 0.000488281 13.2502 0.530176 13.2502 1.18361V1.64158C14.1755 1.66689 15 1.72033 15.7364 1.78924V1.18361C15.7364 0.530176 16.2661 0.000488281 16.9196 0.000488281C17.573 0.000488281 18.1027 0.530176 18.1027 1.18361V2.1033C20.3654 2.56174 22.3988 4.62611 22.8 6.89627C22.8272 7.05846 22.8539 7.22815 22.8802 7.4044C13.613 6.75799 4.50988 7.20752 1.25254 7.41236L1.25301 7.41189ZM23.2552 12.8124C23.2524 15.4181 23.0339 17.3264 22.8005 18.7285C22.3922 21.0389 20.2941 23.1371 17.9836 23.5453C16.5816 23.7788 14.6733 23.9972 12.0675 24C9.46176 23.9972 7.55348 23.7788 6.15144 23.5453C3.84098 23.1371 1.74238 21.0389 1.33457 18.7285C1.10113 17.3264 0.883164 15.4181 0.879883 12.8124C0.881289 11.423 0.944102 10.2324 1.03785 9.21096C3.94738 9.02018 13.4752 8.50596 23.0968 9.20533C23.1905 10.2281 23.2538 11.4206 23.2552 12.8124ZM16.9121 12.0928C16.3247 11.5331 15.3947 11.5561 14.8355 12.1439L10.8821 16.2956L9.28973 14.655C8.72441 14.0724 7.79488 14.0588 7.21316 14.6236C6.63098 15.1885 6.61691 16.1185 7.18176 16.7006L9.83863 19.4381C10.1152 19.7231 10.4954 19.8839 10.8929 19.8839H10.8994C11.2993 19.882 11.6808 19.7171 11.956 19.4278L16.9632 14.1699C17.5229 13.5821 17.4999 12.6521 16.9121 12.0933V12.0928Z" fill="url(#paint0_linear_19_4439)"/>
<defs>
<linearGradient id="paint0_linear_19_4439" x1="0.879883" y1="12" x2="23.2552" y2="12" gradientUnits="userSpaceOnUse">
<stop stop-color="#0CAA0C"/>
<stop offset="0.6" stop-color="#4BD14B"/>
<stop offset="1" stop-color="#60E260"/>
</linearGradient>
</defs>
</svg>
